<?xml version="1.0" encoding="utf-8"?>
<svg version="1.2" baseProfile="tiny-ps" xmlns="http://www.w3.org/2000/svg" viewBox="-57.475 0 1000 1000">
  <title>Control Plane Logo</title>
  <path fill="#1563ff" d="M0,713.8V286.2a72.24,72.24,0,0,1,36.22-62.72L406.4,9.68a72.25,72.25,0,0,1,72.26,0l371.05,213.8a72.42,72.42,0,0,1,35.34,62.72V713.8a72.42,72.42,0,0,1-35.34,62.72l-371,213.8a72.25,72.25,0,0,1-72.26,0L36.23,777.41A72.26,72.26,0,0,1,0,713.8Z"/>
  <path fill="#dce8ff" d="M786.28,268.71,483.43,93.79a27,27,0,0,0-40.64,23.5V285.14l158,91a57.08,57.08,0,0,1,28.62,49.47V607.43L774.8,691.36a27,27,0,0,0,40.46-23.5V318A56.88,56.88,0,0,0,786.28,268.71Z"/>
  <path fill="#508aff" d="M256.74,574.39V392.57L111.32,308.64a27,27,0,0,0-40.64,23.5V681.82a57.07,57.07,0,0,0,28.63,49.47L402.16,906.21a27,27,0,0,0,40.63-22.79V715.56l-157.6-91A56.89,56.89,0,0,1,256.74,574.39Z"/>
  <path fill="#96b9ff" d="M442.79,467V285.14L297.38,201.22a27,27,0,0,0-40.64,23.5V392.57l157.43,91A56.89,56.89,0,0,1,442.79,533V714.86l145.42,83.92a27,27,0,0,0,40.64-23.5V607.43l-157.61-91A56.73,56.73,0,0,1,442.79,467Z"/>
  <path fill="#eff5ff" d="M600.76,376.14l-157.44-91V467a56.73,56.73,0,0,0,28.45,49.47l157.61,91V425.61A57.08,57.08,0,0,0,600.76,376.14Z"/>
  <path fill="#b0caff" d="M414.17,483.57l-157.43-91V574.39a56.89,56.89,0,0,0,28.45,49.47l157.6,91V533A56.89,56.89,0,0,0,414.17,483.57Z"/>
</svg>
