<svg id="Layer_1" data-name="Layer 1" xmlns="http://www.w3.org/2000/svg" viewBox="0 0 763.19 264.38"><defs><style>.cls-1{fill:#242442;}</style></defs><title>Control_Plane_logo_</title><path class="cls-1" d="M54.55,19.24c14.39,0,25.66,8.15,28.14,22.31H104.3C100.66,15.26,80.44,0,54.2,0,23.29,0,0,22.54,0,60.79s23,60.79,54.2,60.79c28.14,0,46.81-18.2,50.1-40.8l-21.61-.11c-2.71,13.87-14,21.67-28.2,21.67-19.18,0-32.94-14.39-32.94-41.55C21.55,34.09,35.19,19.24,54.55,19.24Z"/><path class="cls-1" d="M172.17,121.58c31,0,54.38-22.54,54.38-60.79S203.2,0,172.17,0s-54.38,22.54-54.38,60.79S141.08,121.58,172.17,121.58Zm0-102.34c19.3,0,32.82,14.62,32.82,41.55s-13.52,41.55-32.82,41.55-32.82-14.62-32.82-41.55S152.93,19.24,172.17,19.24Z"/><polygon class="cls-1" points="265.12 39.35 266.1 39.35 321.86 119.96 340.93 119.96 340.93 1.62 319.61 1.62 319.61 82.29 318.57 82.29 262.86 1.62 243.68 1.62 243.68 119.96 265.12 119.96 265.12 39.35"/><polygon class="cls-1" points="450.23 1.62 355.81 1.62 355.81 19.59 392.39 19.59 392.39 119.96 413.65 119.96 413.65 19.59 450.23 19.59 450.23 1.62"/><path class="cls-1" d="M551.27,39.47c0-22.6-14.56-37.85-41.72-37.85H465.17V120h21.44V76.62h21.84L531.68,120H555.6L530,73C543.93,67.44,551.27,55.53,551.27,39.47Zm-44.9,19.36H486.61V19.53h19.64c16,0,23.17,7.34,23.17,19.94S522.26,58.83,506.37,58.83Z"/><path class="cls-1" d="M619.19,0c-31.09,0-54.37,22.54-54.37,60.79s23.28,60.79,54.37,60.79S673.57,99,673.57,60.79,650.22,0,619.19,0Zm0,102.34c-19.24,0-32.82-14.62-32.82-41.55S600,19.24,619.19,19.24,652,33.86,652,60.79,638.49,102.34,619.19,102.34Z"/><polygon class="cls-1" points="711.07 101.99 711.07 1.62 689.63 1.62 689.63 119.96 763.19 119.96 763.19 101.99 711.07 101.99"/><path class="cls-1" d="M47.38,146H3V264.38H24.44v-40H47.1c27.33,0,42-16.41,42-39.18C89.11,162.62,74.6,146,47.38,146Zm-3.17,60.73H24.44V163.94H44.09c16.06,0,23.17,8.67,23.17,21.27S60.15,206.76,44.21,206.76Z"/><polygon class="cls-1" points="125.94 146.03 104.5 146.03 104.5 264.38 178.06 264.38 178.06 246.4 125.94 246.4 125.94 146.03"/><path class="cls-1" d="M231.83,146,190.17,264.38h22.88l9.76-29.19h44.5l9.82,29.19H300L258.29,146ZM228.59,218l16-47.67h.92l16,47.67Z"/><polygon class="cls-1" points="388.34 226.7 387.3 226.7 331.59 146.03 312.41 146.03 312.41 264.38 333.85 264.38 333.85 183.76 334.83 183.76 390.59 264.38 409.66 264.38 409.66 146.03 388.34 146.03 388.34 226.7"/><polygon class="cls-1" points="451.18 214.1 502.73 214.1 502.73 196.13 451.18 196.13 451.18 164 506.71 164 506.71 146.03 429.74 146.03 429.74 264.38 507.18 264.38 507.18 246.4 451.18 246.4 451.18 214.1"/></svg>